<?xml version="1.0" encoding="UTF-8"?>
<!DOCTYPE svg PUBLIC "-//W3C//DTD SVG 1.1//EN" "http://www.w3.org/Graphics/SVG/1.1/DTD/svg11.dtd">
<!-- Creator: CorelDRAW X7 -->
<svg xmlns="http://www.w3.org/2000/svg" xml:space="preserve" width="71.5206mm" height="13.0304mm" version="1.1" style="shape-rendering:geometricPrecision; text-rendering:geometricPrecision; image-rendering:optimizeQuality; fill-rule:evenodd; clip-rule:evenodd"
viewBox="0 0 2742 500"
 xmlns:xlink="http://www.w3.org/1999/xlink">
 <defs>
  <style type="text/css">
   <![CDATA[
    .str0 {stroke:#FEFEFE;stroke-width:19.1684;stroke-linejoin:round}
    .str1 {stroke:#FEFEFE;stroke-width:9.58418;stroke-linecap:round;stroke-linejoin:round}
    .fil2 {fill:none}
    .fil0 {fill:none;fill-rule:nonzero}
    .fil1 {fill:#E31E24;fill-rule:nonzero}
    .fil3 {fill:#2B2A29;fill-rule:nonzero}
    .fil4 {fill:#E31E24;fill-rule:nonzero}
   ]]>
  </style>
 </defs>
 <g id="Слой_x0020_1">
  <metadata id="CorelCorpID_0Corel-Layer"/>
  <g>
   <path class="fil0 str0" d="M936 407c-1,-3 -5,-12 -14,-19 -11,-8 -23,-9 -35,-9 -10,0 -21,1 -32,7 -15,8 -18,22 -18,29 0,12 6,20 13,25 8,6 20,9 28,10l15 2c3,0 5,0 8,2 1,0 3,2 3,5 0,1 -1,3 -2,4 -1,1 -4,3 -15,3 -4,0 -10,-1 -15,-4 -3,-3 -5,-5 -6,-9l-34 5c3,8 8,15 13,20 12,10 30,12 40,12 15,0 29,-3 39,-9 8,-5 17,-14 17,-29 0,-9 -4,-16 -8,-21 -9,-10 -24,-12 -31,-13l-19 -2c-7,-1 -10,-3 -10,-7 0,-1 1,-3 2,-4 3,-2 7,-3 10,-3 3,0 8,0 13,3 2,1 5,5 7,8l31 -6zm61 -62l-41 0 0 143 41 0 0 -67c0,-5 1,-10 5,-13 2,-2 4,-2 7,-2 3,0 5,0 7,3 2,3 2,7 2,10l0 69 41 0 0 -71c0,-9 0,-22 -9,-30 -6,-6 -16,-8 -23,-8 -12,0 -23,5 -30,15l0 -49zm85 36l0 107 41 0 0 -46c0,-8 0,-14 4,-19 4,-5 9,-7 16,-7 3,0 5,0 8,1l0 -37c-2,-1 -4,-1 -6,-1 -9,0 -17,3 -23,10 -2,3 -4,8 -4,14l-1 0 0 -22 -35 0zm186 0l-42 0 0 64c0,3 0,8 -3,11 -2,3 -5,4 -8,4 -3,0 -6,-2 -7,-4 -3,-3 -3,-7 -3,-12l0 -63 -41 0 0 74c0,10 1,22 13,30 6,3 14,5 21,5 4,0 23,-1 31,-20l0 0 0 18 39 0 0 -107zm64 -36l-42 0 0 143 24 0 6 -15c10,16 25,17 33,17 10,0 24,-3 34,-15 9,-11 12,-29 12,-41 0,-14 -3,-30 -11,-40 -6,-10 -16,-15 -29,-15 -7,0 -19,2 -27,15l0 -49zm0 77c0,-4 0,-9 3,-13 2,-2 5,-3 8,-3 5,0 9,3 11,8 2,2 3,7 3,20 0,13 -1,19 -2,22 -3,5 -6,9 -12,9 -5,0 -8,-4 -9,-6 -2,-4 -2,-10 -2,-12l0 -25zm126 -77l-41 0 0 143 41 0 0 -29 10 -14 20 43 43 0 -36 -70 32 -37 -35 0 -34 41 0 -77zm119 71c0,-5 4,-11 16,-11 5,0 8,1 10,3 2,2 2,7 2,9l0 2 -7 0c-16,1 -38,5 -51,14 -8,7 -12,17 -12,26 0,14 10,31 38,31 21,0 30,-10 34,-17 0,8 1,12 2,15l39 0c-3,-11 -3,-17 -3,-23l0 -42c0,-9 0,-17 -4,-25 -9,-17 -29,-19 -47,-19 -11,0 -26,1 -38,9 -6,4 -14,11 -17,25l38 3zm28 22l0 6c0,8 -1,21 -16,21 -8,0 -12,-4 -12,-10 0,-3 2,-8 6,-11 1,-1 6,-3 16,-5l6 -1zm62 12l0 38 39 0 0 -38 -39 0zm160 -29c-1,-13 -8,-25 -16,-31 -5,-5 -15,-11 -34,-11 -20,0 -32,8 -39,15 -8,9 -15,23 -15,41 0,20 8,33 16,40 12,13 28,15 38,15 10,0 23,-2 34,-11 8,-7 15,-18 16,-31l-36 -3c0,4 -1,11 -3,14 -3,5 -6,6 -9,6 -4,0 -8,-2 -11,-7 -1,-4 -3,-10 -3,-24 0,-14 1,-20 3,-24 2,-2 5,-5 10,-5 5,0 8,2 9,5 3,3 4,10 4,14l36 -3zm112 -40l-30 0 -19 57 0 0 -18 -57 -43 0 39 107 32 0 39 -107zm-1 69l0 38 39 0 0 -38 -39 0zm165 -69l-41 0 0 64c0,3 0,8 -3,11 -2,3 -5,4 -8,4 -3,0 -6,-2 -8,-4 -2,-3 -2,-7 -2,-12l0 -63 -41 0 0 74c0,10 1,22 13,30 5,3 13,5 20,5 5,0 23,-1 32,-20l0 0 0 18 38 0 0 -107zm58 35c1,-5 5,-11 16,-11 6,0 9,1 11,3 2,2 2,7 2,9l0 2 -8 0c-15,1 -38,5 -50,14 -8,7 -12,17 -12,26 0,14 10,31 38,31 21,0 30,-10 34,-17 0,8 1,12 2,15l39 0c-3,-11 -3,-17 -3,-23l0 -42c0,-9 0,-17 -4,-25 -9,-17 -29,-19 -47,-19 -11,0 -26,1 -38,9 -6,4 -14,11 -17,25l37 3zm29 22l0 6c0,8 -1,21 -16,21 -8,0 -12,-4 -12,-10 0,-3 2,-8 6,-11 1,-1 6,-3 16,-5l6 -1z"/>
   <path id="1" class="fil1" d="M936 407c-1,-3 -5,-12 -14,-19 -11,-8 -23,-9 -35,-9 -10,0 -21,1 -32,7 -15,8 -18,22 -18,29 0,12 6,20 13,25 8,6 20,9 28,10l15 2c3,0 5,0 8,2 1,0 3,2 3,5 0,1 -1,3 -2,4 -1,1 -4,3 -15,3 -4,0 -10,-1 -15,-4 -3,-3 -5,-5 -6,-9l-34 5c3,8 8,15 13,20 12,10 30,12 40,12 15,0 29,-3 39,-9 8,-5 17,-14 17,-29 0,-9 -4,-16 -8,-21 -9,-10 -24,-12 -31,-13l-19 -2c-7,-1 -10,-3 -10,-7 0,-1 1,-3 2,-4 3,-2 7,-3 10,-3 3,0 8,0 13,3 2,1 5,5 7,8l31 -6zm61 -62l-41 0 0 143 41 0 0 -67c0,-5 1,-10 5,-13 2,-2 4,-2 7,-2 3,0 5,0 7,3 2,3 2,7 2,10l0 69 41 0 0 -71c0,-9 0,-22 -9,-30 -6,-6 -16,-8 -23,-8 -12,0 -23,5 -30,15l0 -49zm85 36l0 107 41 0 0 -46c0,-8 0,-14 4,-19 4,-5 9,-7 16,-7 3,0 5,0 8,1l0 -37c-2,-1 -4,-1 -6,-1 -9,0 -17,3 -23,10 -2,3 -4,8 -4,14l-1 0 0 -22 -35 0zm186 0l-42 0 0 64c0,3 0,8 -3,11 -2,3 -5,4 -8,4 -3,0 -6,-2 -7,-4 -3,-3 -3,-7 -3,-12l0 -63 -41 0 0 74c0,10 1,22 13,30 6,3 14,5 21,5 4,0 23,-1 31,-20l0 0 0 18 39 0 0 -107zm64 -36l-42 0 0 143 24 0 6 -15c10,16 25,17 33,17 10,0 24,-3 34,-15 9,-11 12,-29 12,-41 0,-14 -3,-30 -11,-40 -6,-10 -16,-15 -29,-15 -7,0 -19,2 -27,15l0 -49zm0 77c0,-4 0,-9 3,-13 2,-2 5,-3 8,-3 5,0 9,3 11,8 2,2 3,7 3,20 0,13 -1,19 -2,22 -3,5 -6,9 -12,9 -5,0 -8,-4 -9,-6 -2,-4 -2,-10 -2,-12l0 -25zm126 -77l-41 0 0 143 41 0 0 -29 10 -14 20 43 43 0 -36 -70 32 -37 -35 0 -34 41 0 -77zm119 71c0,-5 4,-11 16,-11 5,0 8,1 10,3 2,2 2,7 2,9l0 2 -7 0c-16,1 -38,5 -51,14 -8,7 -12,17 -12,26 0,14 10,31 38,31 21,0 30,-10 34,-17 0,8 1,12 2,15l39 0c-3,-11 -3,-17 -3,-23l0 -42c0,-9 0,-17 -4,-25 -9,-17 -29,-19 -47,-19 -11,0 -26,1 -38,9 -6,4 -14,11 -17,25l38 3zm28 22l0 6c0,8 -1,21 -16,21 -8,0 -12,-4 -12,-10 0,-3 2,-8 6,-11 1,-1 6,-3 16,-5l6 -1zm62 12l0 38 39 0 0 -38 -39 0zm160 -29c-1,-13 -8,-25 -16,-31 -5,-5 -15,-11 -34,-11 -20,0 -32,8 -39,15 -8,9 -15,23 -15,41 0,20 8,33 16,40 12,13 28,15 38,15 10,0 23,-2 34,-11 8,-7 15,-18 16,-31l-36 -3c0,4 -1,11 -3,14 -3,5 -6,6 -9,6 -4,0 -8,-2 -11,-7 -1,-4 -3,-10 -3,-24 0,-14 1,-20 3,-24 2,-2 5,-5 10,-5 5,0 8,2 9,5 3,3 4,10 4,14l36 -3zm112 -40l-30 0 -19 57 0 0 -18 -57 -43 0 39 107 32 0 39 -107zm-1 69l0 38 39 0 0 -38 -39 0zm165 -69l-41 0 0 64c0,3 0,8 -3,11 -2,3 -5,4 -8,4 -3,0 -6,-2 -8,-4 -2,-3 -2,-7 -2,-12l0 -63 -41 0 0 74c0,10 1,22 13,30 5,3 13,5 20,5 5,0 23,-1 32,-20l0 0 0 18 38 0 0 -107zm58 35c1,-5 5,-11 16,-11 6,0 9,1 11,3 2,2 2,7 2,9l0 2 -8 0c-15,1 -38,5 -50,14 -8,7 -12,17 -12,26 0,14 10,31 38,31 21,0 30,-10 34,-17 0,8 1,12 2,15l39 0c-3,-11 -3,-17 -3,-23l0 -42c0,-9 0,-17 -4,-25 -9,-17 -29,-19 -47,-19 -11,0 -26,1 -38,9 -6,4 -14,11 -17,25l37 3zm29 22l0 6c0,8 -1,21 -16,21 -8,0 -12,-4 -12,-10 0,-3 2,-8 6,-11 1,-1 6,-3 16,-5l6 -1z"/>
  </g>
  <g id="_1276326784">
   <g id="_1297910656">
    <path class="fil2 str1" d="M25 13l-20 162 56 0c43,0 62,-19 62,-52 0,-18 -9,-28 -23,-34l0 0c16,-9 25,-27 25,-42 0,-23 -15,-34 -43,-34l-57 0 0 0zm42 66l-15 0 5 -33 16 0c10,0 15,3 15,11 0,13 -9,22 -21,22zm-5 65l-17 0 4 -37 20 0c11,0 17,5 17,13 0,14 -7,24 -24,24l0 0zm107 34c15,0 25,-8 33,-19l1 0 -1 16 33 0 14 -111 -34 0 -6 51c-3,17 -16,32 -25,32 -9,0 -11,-6 -8,-24l8 -59 -34 0 -9 69c-5,33 7,45 28,45l0 0zm169 0c30,0 50,-13 50,-37 0,-12 -6,-21 -18,-25l0 0c11,-3 21,-12 21,-25 0,-20 -20,-30 -44,-30 -15,0 -33,6 -41,11l13 25c7,-4 17,-7 26,-7 7,0 12,2 12,8 0,6 -5,10 -17,10l-15 0 -3 22 19 0c7,0 14,2 14,8 0,8 -8,12 -19,12 -9,0 -21,-3 -31,-11l-12 28c12,7 24,11 45,11l0 0zm100 0c13,0 24,-7 32,-19l1 0 -2 16 35 0 13 -111 -35 0 0 8 -1 0c-6,-7 -15,-11 -26,-11 -30,0 -53,31 -53,71 0,26 12,46 36,46l0 0zm11 -31c-8,0 -13,-7 -13,-18 0,-16 9,-37 25,-37 6,0 13,3 18,9l0 3c-4,28 -18,43 -30,43zm127 31c42,0 62,-32 62,-68 0,-31 -19,-49 -48,-49 -39,0 -62,33 -62,68 0,31 19,49 48,49zm2 -31c-7,0 -15,-6 -15,-19 0,-18 9,-36 24,-36 6,0 16,4 16,20 0,18 -10,35 -25,35l0 0zm256 1l-15 0c-7,0 -11,-1 -10,-12l9 -72 -34 0 -6 49c-3,19 -16,34 -22,34 -8,0 -9,-6 -7,-24l7 -59 -33 0 -7 52c-2,19 -14,31 -21,31 -7,0 -10,-6 -7,-24l9 -59 -35 0 -10 68c-4,34 9,46 29,46 12,0 27,-8 35,-21l1 0c3,13 11,21 23,21 13,0 27,-9 35,-23l1 0c0,1 0,1 0,2 2,12 10,20 23,20l-3 28 27 0 11 -57 0 0zm43 30c13,0 24,-7 33,-19l0 0 -2 16 35 0 13 -111 -34 0 -1 8 -1 0c-6,-7 -15,-11 -26,-11 -30,0 -53,31 -53,71 0,26 12,46 36,46l0 0zm11 -31c-8,0 -12,-7 -12,-18 0,-16 9,-37 24,-37 6,0 13,3 18,9l0 3c-4,28 -18,43 -30,43zm127 31c43,0 64,-39 64,-92 0,-38 -12,-80 -75,-81l-7 28c8,1 15,2 22,3 17,6 23,15 25,37l0 0c-7,-6 -15,-8 -24,-8 -28,0 -52,27 -52,64 0,29 17,49 47,49l0 0zm2 -31c-7,0 -15,-5 -15,-20 0,-17 10,-33 25,-33 6,0 12,1 17,7 -2,26 -13,46 -27,46l0 0zm203 -17l-3 -11c16,-14 28,-33 32,-55l-35 0c-5,18 -12,35 -31,47l-1 0 6 -47 -32 0 -5 34c-3,2 -7,3 -10,5l-2 -9c-5,-20 -14,-33 -32,-33 -5,0 -7,1 -10,1l-7 28c10,1 16,3 21,20l3 10c-16,15 -28,33 -32,55l35 0c5,-18 12,-34 30,-46l0 0 -5 46 32 0 5 -34c4,-1 7,-2 12,-4l1 9c5,19 15,32 32,32 5,0 8,0 10,-1l8 -27c-10,-1 -17,-4 -22,-20zm146 -66l-34 0 -6 51c-2,16 -16,32 -26,32 -8,0 -9,-6 -7,-24l8 -59 -34 0 -9 69c-5,33 8,45 28,45 14,0 25,-7 33,-19l1 0 0 0c-4,31 -15,36 -31,36 -9,0 -18,-3 -28,-9l-10 26c12,8 27,11 40,11 28,0 57,-12 63,-63l12 -96zm64 86c-9,0 -18,-6 -19,-20l40 -1 3 -21 -40 0c4,-11 13,-17 25,-17 7,0 16,2 21,9l23 -21c-11,-13 -29,-18 -43,-18 -40,0 -62,29 -62,68 -1,32 20,49 50,49 19,0 35,-6 48,-22l-25 -17c-7,8 -14,11 -21,11l0 0zm73 -86l-14 111 34 0 5 -43c3,-26 18,-40 26,-40 7,0 8,7 6,23l-8 60 34 0 6 -40c3,-29 18,-43 26,-43 7,0 8,7 6,23l-8 60 34 0 9 -66c4,-33 -4,-48 -26,-48 -16,0 -28,6 -38,18l-1 0c-3,-12 -11,-18 -24,-18 -13,0 -24,6 -34,17l-1 0 2 -14 -34 0 0 0zm271 28c1,-20 -19,-31 -37,-31 -38,0 -62,32 -62,70 0,28 19,47 46,47 22,0 37,-9 49,-25l-25 -15c-6,9 -13,12 -21,12 -6,0 -13,-5 -15,-15 32,-3 65,-14 65,-43l0 0zm-32 6c-1,10 -16,15 -33,16 5,-15 15,-24 24,-24 6,0 9,3 9,8l0 0zm619 80c22,0 38,-7 50,-21l-25 -19c-6,7 -13,12 -21,12 -4,0 -7,-1 -7,-6 0,-3 3,-5 11,-9l16 -9c16,-8 28,-17 28,-36 0,-20 -18,-29 -37,-29 -15,0 -33,7 -43,15l18 23c8,-6 15,-9 20,-9 5,0 8,1 8,5 0,4 -3,6 -12,10l-13 7c-20,10 -31,21 -31,38 0,18 13,28 38,28l0 0zm76 -114l-19 157 34 0 6 -51 1 0c7,5 15,8 26,8 30,0 54,-31 54,-71 0,-25 -12,-46 -36,-46 -14,0 -25,8 -34,20l0 -1 2 -16 -34 0zm39 83c-6,0 -12,-2 -15,-6l0 -3c4,-30 18,-46 31,-46 7,0 13,8 13,19 0,18 -11,36 -29,36l0 0zm188 -83l-34 0 -5 43 -31 0 5 -43 -35 0 -13 111 34 0 5 -40 31 0 -5 40 34 0 14 -111zm37 -57l-8 113 24 0 20 -113 -36 0 0 0zm-1 171c13,0 21,-9 21,-21 0,-10 -7,-19 -20,-19 -12,0 -21,9 -21,20 0,11 8,20 20,20l0 0z"/>
    <path id="_1" class="fil3" d="M25 13l-20 162 56 0c43,0 62,-19 62,-52 0,-18 -9,-28 -23,-34l0 0c16,-9 25,-27 25,-42 0,-23 -15,-34 -43,-34l-57 0 0 0zm42 66l-15 0 5 -33 16 0c10,0 15,3 15,11 0,13 -9,22 -21,22zm-5 65l-17 0 4 -37 20 0c11,0 17,5 17,13 0,14 -7,24 -24,24l0 0zm107 34c15,0 25,-8 33,-19l1 0 -1 16 33 0 14 -111 -34 0 -6 51c-3,17 -16,32 -25,32 -9,0 -11,-6 -8,-24l8 -59 -34 0 -9 69c-5,33 7,45 28,45l0 0zm169 0c30,0 50,-13 50,-37 0,-12 -6,-21 -18,-25l0 0c11,-3 21,-12 21,-25 0,-20 -20,-30 -44,-30 -15,0 -33,6 -41,11l13 25c7,-4 17,-7 26,-7 7,0 12,2 12,8 0,6 -5,10 -17,10l-15 0 -3 22 19 0c7,0 14,2 14,8 0,8 -8,12 -19,12 -9,0 -21,-3 -31,-11l-12 28c12,7 24,11 45,11l0 0zm100 0c13,0 24,-7 32,-19l1 0 -2 16 35 0 13 -111 -35 0 0 8 -1 0c-6,-7 -15,-11 -26,-11 -30,0 -53,31 -53,71 0,26 12,46 36,46l0 0zm11 -31c-8,0 -13,-7 -13,-18 0,-16 9,-37 25,-37 6,0 13,3 18,9l0 3c-4,28 -18,43 -30,43zm127 31c42,0 62,-32 62,-68 0,-31 -19,-49 -48,-49 -39,0 -62,33 -62,68 0,31 19,49 48,49zm2 -31c-7,0 -15,-6 -15,-19 0,-18 9,-36 24,-36 6,0 16,4 16,20 0,18 -10,35 -25,35l0 0zm256 1l-15 0c-7,0 -11,-1 -10,-12l9 -72 -34 0 -6 49c-3,19 -16,34 -22,34 -8,0 -9,-6 -7,-24l7 -59 -33 0 -7 52c-2,19 -14,31 -21,31 -7,0 -10,-6 -7,-24l9 -59 -35 0 -10 68c-4,34 9,46 29,46 12,0 27,-8 35,-21l1 0c3,13 11,21 23,21 13,0 27,-9 35,-23l1 0c0,1 0,1 0,2 2,12 10,20 23,20l-3 28 27 0 11 -57 0 0zm43 30c13,0 24,-7 33,-19l0 0 -2 16 35 0 13 -111 -34 0 -1 8 -1 0c-6,-7 -15,-11 -26,-11 -30,0 -53,31 -53,71 0,26 12,46 36,46l0 0zm11 -31c-8,0 -12,-7 -12,-18 0,-16 9,-37 24,-37 6,0 13,3 18,9l0 3c-4,28 -18,43 -30,43zm127 31c43,0 64,-39 64,-92 0,-38 -12,-80 -75,-81l-7 28c8,1 15,2 22,3 17,6 23,15 25,37l0 0c-7,-6 -15,-8 -24,-8 -28,0 -52,27 -52,64 0,29 17,49 47,49l0 0zm2 -31c-7,0 -15,-5 -15,-20 0,-17 10,-33 25,-33 6,0 12,1 17,7 -2,26 -13,46 -27,46l0 0zm203 -17l-3 -11c16,-14 28,-33 32,-55l-35 0c-5,18 -12,35 -31,47l-1 0 6 -47 -32 0 -5 34c-3,2 -7,3 -10,5l-2 -9c-5,-20 -14,-33 -32,-33 -5,0 -7,1 -10,1l-7 28c10,1 16,3 21,20l3 10c-16,15 -28,33 -32,55l35 0c5,-18 12,-34 30,-46l0 0 -5 46 32 0 5 -34c4,-1 7,-2 12,-4l1 9c5,19 15,32 32,32 5,0 8,0 10,-1l8 -27c-10,-1 -17,-4 -22,-20zm146 -66l-34 0 -6 51c-2,16 -16,32 -26,32 -8,0 -9,-6 -7,-24l8 -59 -34 0 -9 69c-5,33 8,45 28,45 14,0 25,-7 33,-19l1 0 0 0c-4,31 -15,36 -31,36 -9,0 -18,-3 -28,-9l-10 26c12,8 27,11 40,11 28,0 57,-12 63,-63l12 -96zm64 86c-9,0 -18,-6 -19,-20l40 -1 3 -21 -40 0c4,-11 13,-17 25,-17 7,0 16,2 21,9l23 -21c-11,-13 -29,-18 -43,-18 -40,0 -62,29 -62,68 -1,32 20,49 50,49 19,0 35,-6 48,-22l-25 -17c-7,8 -14,11 -21,11l0 0zm73 -86l-14 111 34 0 5 -43c3,-26 18,-40 26,-40 7,0 8,7 6,23l-8 60 34 0 6 -40c3,-29 18,-43 26,-43 7,0 8,7 6,23l-8 60 34 0 9 -66c4,-33 -4,-48 -26,-48 -16,0 -28,6 -38,18l-1 0c-3,-12 -11,-18 -24,-18 -13,0 -24,6 -34,17l-1 0 2 -14 -34 0 0 0zm271 28c1,-20 -19,-31 -37,-31 -38,0 -62,32 -62,70 0,28 19,47 46,47 22,0 37,-9 49,-25l-25 -15c-6,9 -13,12 -21,12 -6,0 -13,-5 -15,-15 32,-3 65,-14 65,-43l0 0zm-32 6c-1,10 -16,15 -33,16 5,-15 15,-24 24,-24 6,0 9,3 9,8l0 0zm619 80c22,0 38,-7 50,-21l-25 -19c-6,7 -13,12 -21,12 -4,0 -7,-1 -7,-6 0,-3 3,-5 11,-9l16 -9c16,-8 28,-17 28,-36 0,-20 -18,-29 -37,-29 -15,0 -33,7 -43,15l18 23c8,-6 15,-9 20,-9 5,0 8,1 8,5 0,4 -3,6 -12,10l-13 7c-20,10 -31,21 -31,38 0,18 13,28 38,28l0 0zm76 -114l-19 157 34 0 6 -51 1 0c7,5 15,8 26,8 30,0 54,-31 54,-71 0,-25 -12,-46 -36,-46 -14,0 -25,8 -34,20l0 -1 2 -16 -34 0zm39 83c-6,0 -12,-2 -15,-6l0 -3c4,-30 18,-46 31,-46 7,0 13,8 13,19 0,18 -11,36 -29,36l0 0zm188 -83l-34 0 -5 43 -31 0 5 -43 -35 0 -13 111 34 0 5 -40 31 0 -5 40 34 0 14 -111zm37 -57l-8 113 24 0 20 -113 -36 0 0 0zm-1 171c13,0 21,-9 21,-21 0,-10 -7,-19 -20,-19 -12,0 -21,9 -21,20 0,11 8,20 20,20l0 0z"/>
   </g>
   <g id="_1297913536">
    <path class="fil0 str1" d="M1906 18l-29 0 -49 35 14 27 22 -16 -14 111 36 0 20 -157zm58 160c37,0 59,-27 59,-64 0,-26 -16,-40 -34,-40 -10,0 -19,3 -27,9l0 0c10,-19 27,-31 51,-40l-6 -29c-54,11 -88,60 -88,113 0,32 19,51 45,51l0 0zm3 -31c-10,0 -15,-11 -15,-24 0,-4 0,-6 0,-10 6,-6 15,-10 21,-10 12,0 16,6 16,16 0,15 -10,28 -22,28l0 0zm115 31c35,0 60,-20 60,-55 0,-17 -9,-28 -20,-33l0 0c13,-7 20,-23 20,-39 0,-23 -17,-34 -37,-34 -31,0 -52,20 -52,48 0,13 6,22 13,26l0 1c-19,8 -30,27 -30,48 0,23 19,38 46,38l0 0zm14 -101c-7,0 -11,-5 -11,-13 0,-10 5,-19 14,-19 8,0 12,5 12,13 0,9 -7,19 -15,19l0 0zm-10 71c-9,0 -14,-7 -14,-17 0,-12 8,-24 20,-24 9,0 14,7 14,17 0,13 -9,24 -20,24zm123 30c44,0 66,-49 66,-99 0,-40 -17,-62 -48,-62 -45,0 -67,49 -67,99 0,40 18,62 49,62zm1 -34c-9,0 -14,-9 -14,-26 0,-26 8,-68 29,-68 10,0 14,9 14,26 0,28 -7,68 -29,68z"/>
    <path id="_1_0" class="fil4" d="M1906 18l-29 0 -49 35 14 27 22 -16 -14 111 36 0 20 -157zm58 160c37,0 59,-27 59,-64 0,-26 -16,-40 -34,-40 -10,0 -19,3 -27,9l0 0c10,-19 27,-31 51,-40l-6 -29c-54,11 -88,60 -88,113 0,32 19,51 45,51l0 0zm3 -31c-10,0 -15,-11 -15,-24 0,-4 0,-6 0,-10 6,-6 15,-10 21,-10 12,0 16,6 16,16 0,15 -10,28 -22,28l0 0zm115 31c35,0 60,-20 60,-55 0,-17 -9,-28 -20,-33l0 0c13,-7 20,-23 20,-39 0,-23 -17,-34 -37,-34 -31,0 -52,20 -52,48 0,13 6,22 13,26l0 1c-19,8 -30,27 -30,48 0,23 19,38 46,38l0 0zm14 -101c-7,0 -11,-5 -11,-13 0,-10 5,-19 14,-19 8,0 12,5 12,13 0,9 -7,19 -15,19l0 0zm-10 71c-9,0 -14,-7 -14,-17 0,-12 8,-24 20,-24 9,0 14,7 14,17 0,13 -9,24 -20,24zm123 30c44,0 66,-49 66,-99 0,-40 -17,-62 -48,-62 -45,0 -67,49 -67,99 0,40 18,62 49,62zm1 -34c-9,0 -14,-9 -14,-26 0,-26 8,-68 29,-68 10,0 14,9 14,26 0,28 -7,68 -29,68z"/>
   </g>
  </g>
 </g>
</svg>
